<svg xmlns="http://www.w3.org/2000/svg" width="75.039" height="45.695" viewBox="0 0 3038 1850">
  <path id="logo" class="cls-1" d="M209,67l817,3c47.04,11.673,91.96,53.556,100,104,13.04,81.815-30.96,139.982-86,160-51.17,18.61-139.556,8-204,8H331l-1,1V732c27.012-3.689,111.038-74.6,153-89,234.264-80.377,571.33-84.593,626,172,61.58,289-261.357,378.39-533,346-76.468-9.12-153.508-13.45-206-48-1.608-57.74,101.372-172.165,151-184l190,17c56.365,5.71,192.1-28.112,178-82-26.445-101.1-313.19-13-359,11-234.8,123.016-227.547,223.17-200,660q268.473,0.495,537,1c55.832,0,129.678-8.27,173,8,67.28,25.26,111.29,111.09,73,196-13.4,29.71-51.84,59.7-86,68H169c-31.359-7.33-58.882-29.06-82-46-89.5-65.59-64.643-529.48-28-649,15.386-50.19,86.067-127.4,90-155-14.284-24.652-36.331-44.136-48-73C42.416,740.092,32.009,565.336,32,358c0-84.37-3.261-164.375,30-214C95.419,94.138,139.248,83.148,209,67Zm1224,0c122.85-1.356,175.51,79.149,244,134,102.05,81.731,205.94,168.066,295,263l182,190c17.49,1.663,119.78-122.307,140-142,139.72-136.106,283.6-267.477,442-385,50.54-37.5,144.43-92.325,218-33,79.41,64.037,53,264.524,53,405v973c0.01,166.51,22.5,334.24-139,339-166.71,4.92-145.01-174.5-145-338q-0.495-482.445-1-965c-43.92.642-326.23,304.524-367,355-4.65,5.755-18.19,13.729-15,26q25.5,36,51,72,53.49,96.99,107,194c127.66,285.91,68.75,590.45-213,673-285.83,83.74-493.76-108.58-522-345-13.39-112.06,25.38-205.72,53-281,15.41-41.98,121.04-267.49,143-269,43.82,52.537,158.69,171.05,171,243q-0.495,6.495-1,13c-26.03,91.04-168.46,290.01-17,364,39.69,19.39,97.53,6.89,129-13,98.72-62.41-8.16-255.58-32-328-28.84-87.6-353.07-513-523-624l-106-98q-1.5,507.95-3,1016c0.01,147.53,20.13,242.22-83,293-22.46,11.06-69.19,17.62-99,7-135.24-48.2-98.01-245.17-98-422V537c0-89.819-17.93-305.825,6-371C1324.67,106.994,1366.87,83.214,1433,67Z"/>
</svg>
