<svg xmlns="http://www.w3.org/2000/svg" xmlns:xlink="http://www.w3.org/1999/xlink" width="100" zoomAndPan="magnify" viewBox="0 0 75 30.000001" height="40" preserveAspectRatio="xMidYMid meet" version="1.0"><defs><g/><clipPath id="f23bb21858"><path d="M 2 4.058594 L 22.984375 4.058594 L 22.984375 25 L 2 25 Z M 2 4.058594 " clip-rule="nonzero"/></clipPath><clipPath id="45ccff0b10"><path d="M 1.210938 4.058594 L 22.984375 4.058594 L 22.984375 25.109375 L 1.210938 25.109375 Z M 1.210938 4.058594 " clip-rule="nonzero"/></clipPath><clipPath id="7fe3caf0b0"><path d="M 69.433594 11.613281 L 72.339844 11.613281 L 72.339844 14.515625 L 69.433594 14.515625 Z M 69.433594 11.613281 " clip-rule="nonzero"/></clipPath></defs><g clip-path="url(#f23bb21858)"><path fill="#ffffff" d="M 13.347656 4.347656 C 10.730469 4.410156 9.601562 4.769531 7.820312 5.359375 C 7.117188 5.59375 6.699219 5.945312 6.085938 6.351562 C 5.355469 6.839844 4.464844 7.816406 3.96875 8.535156 C 1.859375 11.589844 1.441406 15.761719 3.066406 19.089844 C 4.023438 21.042969 5.621094 22.707031 7.609375 23.617188 C 9.628906 24.539062 11.457031 24.980469 13.664062 24.738281 C 15.792969 24.503906 16.175781 24.300781 17.769531 23.335938 C 18.210938 23.070312 19.027344 22.4375 19.363281 22.050781 C 19.773438 21.578125 20.832031 20.492188 21.167969 19.972656 C 22.347656 18.128906 22.695312 16.761719 22.675781 13.929688 C 22.667969 13.039062 22.410156 11.976562 22.117188 11.128906 C 21.527344 9.40625 20.957031 8.128906 19.476562 7.046875 C 17.847656 5.851562 16.855469 4.746094 13.335938 4.34375 " fill-opacity="1" fill-rule="nonzero"/></g><g clip-path="url(#45ccff0b10)"><path fill="#ffffff" d="M 12.484375 25.058594 C 10.863281 25.058594 9.3125 24.671875 7.503906 23.84375 C 5.515625 22.933594 3.859375 21.285156 2.839844 19.199219 C 1.191406 15.828125 1.554688 11.585938 3.761719 8.394531 C 4.269531 7.660156 5.179688 6.652344 5.941406 6.144531 C 6.0625 6.066406 6.175781 5.988281 6.28125 5.914062 C 6.742188 5.59375 7.140625 5.320312 7.742188 5.121094 C 9.476562 4.546875 10.628906 4.167969 13.277344 4.097656 C 13.304688 4.09375 13.335938 4.089844 13.363281 4.09375 C 16.488281 4.453125 17.660156 5.34375 19.011719 6.378906 C 19.210938 6.53125 19.414062 6.6875 19.628906 6.84375 C 21.222656 8.011719 21.808594 9.4375 22.359375 11.050781 C 22.570312 11.660156 22.921875 12.847656 22.929688 13.929688 C 22.953125 16.777344 22.589844 18.222656 21.382812 20.105469 C 21.132812 20.496094 20.527344 21.152344 20.042969 21.679688 C 19.847656 21.890625 19.675781 22.078125 19.558594 22.214844 C 19.183594 22.644531 18.328125 23.292969 17.902344 23.550781 C 16.277344 24.535156 15.855469 24.75 13.691406 24.988281 C 13.28125 25.035156 12.878906 25.058594 12.484375 25.058594 Z M 13.355469 4.601562 C 13.355469 4.601562 13.355469 4.601562 13.351562 4.601562 C 10.734375 4.664062 9.609375 5.035156 7.902344 5.597656 C 7.371094 5.773438 7.019531 6.015625 6.574219 6.324219 C 6.460938 6.402344 6.347656 6.480469 6.226562 6.5625 C 5.515625 7.035156 4.660156 7.984375 4.179688 8.675781 C 2.074219 11.722656 1.726562 15.765625 3.296875 18.980469 C 4.261719 20.960938 5.832031 22.527344 7.714844 23.386719 C 9.878906 24.378906 11.648438 24.707031 13.636719 24.488281 C 15.699219 24.261719 16.058594 24.074219 17.636719 23.121094 C 18.082031 22.851562 18.863281 22.242188 19.171875 21.886719 C 19.292969 21.746094 19.46875 21.554688 19.667969 21.339844 C 20.113281 20.851562 20.726562 20.1875 20.953125 19.835938 C 22.113281 18.027344 22.441406 16.703125 22.421875 13.933594 C 22.414062 13.195312 22.21875 12.203125 21.878906 11.210938 C 21.335938 9.628906 20.804688 8.328125 19.328125 7.246094 C 19.109375 7.089844 18.902344 6.929688 18.703125 6.777344 C 17.414062 5.792969 16.304688 4.945312 13.355469 4.601562 Z M 13.355469 4.601562 " fill-opacity="1" fill-rule="nonzero"/></g><path fill="#010101" d="M 11.832031 16.539062 C 10.453125 16.46875 10.644531 16.507812 9.207031 16.636719 C 8.71875 16.679688 8.210938 16.761719 7.722656 16.824219 C 7.394531 16.863281 7.050781 16.910156 6.785156 17.109375 C 6.523438 17.304688 6.382812 17.707031 6.585938 17.96875 C 6.769531 18.210938 7.128906 18.246094 7.429688 18.203125 C 9.421875 17.941406 10.226562 17.863281 12 17.882812 C 12.773438 17.894531 14.285156 18.269531 14.988281 18.597656 C 15.460938 18.820312 16.371094 19.257812 16.640625 19.347656 C 16.996094 19.46875 17.253906 19.148438 17.335938 18.878906 C 17.410156 18.632812 17.171875 18.382812 17.011719 18.25 C 15.78125 17.230469 13.433594 16.671875 11.839844 16.535156 " fill-opacity="1" fill-rule="nonzero"/><path fill="#010101" d="M 12.613281 14.875 C 11.886719 14.671875 11.3125 14.730469 10.683594 14.742188 C 10.351562 14.75 9.367188 14.832031 9.042969 14.898438 C 8.25 15.054688 8.027344 15.109375 7.234375 15.265625 C 7.050781 15.300781 6.867188 15.339844 6.679688 15.316406 C 6.378906 15.277344 6.105469 15.070312 5.988281 14.792969 C 5.949219 14.699219 5.925781 14.589844 5.957031 14.492188 C 6 14.363281 5.996094 14.066406 6.40625 13.914062 C 8.023438 13.316406 8.839844 13.347656 10.222656 13.246094 C 11.996094 13.117188 12.992188 13.445312 14.351562 13.714844 C 15.238281 13.886719 16.167969 14.265625 17.019531 14.582031 C 17.667969 14.824219 18.242188 15.023438 18.375 15.609375 C 18.414062 15.792969 18.359375 16.144531 18.234375 16.285156 C 18.144531 16.382812 18.0625 16.496094 17.933594 16.519531 C 17.511719 16.585938 17.117188 16.324219 16.722656 16.167969 C 16.449219 16.0625 15.980469 15.890625 15.707031 15.789062 C 14.832031 15.457031 14.121094 15.195312 12.59375 14.875 " fill-opacity="1" fill-rule="nonzero"/><path fill="#010101" d="M 12.699219 11.664062 C 10.800781 11.378906 8.828125 11.585938 6.960938 12.042969 C 6.734375 12.097656 6.5 12.160156 6.265625 12.15625 C 6.027344 12.148438 5.78125 12.0625 5.640625 11.875 C 5.515625 11.714844 5.421875 11.578125 5.398438 11.378906 C 5.378906 11.226562 5.429688 10.992188 5.496094 10.859375 C 5.554688 10.75 5.65625 10.671875 5.757812 10.605469 C 6.292969 10.253906 6.925781 10.050781 7.566406 10.015625 C 7.949219 9.996094 8.367188 9.851562 8.746094 9.816406 C 9.089844 9.785156 10.105469 9.675781 10.449219 9.6875 C 12.320312 9.765625 12.179688 9.613281 14.050781 9.84375 C 14.363281 9.882812 14.925781 10.035156 15.234375 10.09375 C 15.773438 10.195312 15.953125 10.230469 16.46875 10.414062 C 16.972656 10.589844 17.253906 10.632812 17.523438 10.757812 C 17.832031 10.898438 18.273438 11.058594 18.570312 11.21875 C 19.265625 11.59375 19.367188 11.570312 19.789062 12.015625 C 20.15625 12.402344 19.914062 13.015625 19.714844 13.203125 C 19.601562 13.308594 19.5 13.351562 19.351562 13.398438 C 18.84375 13.558594 18.300781 13.359375 17.8125 13.152344 C 16.671875 12.660156 15.542969 12.085938 14.308594 11.921875 C 13.816406 11.855469 13.429688 11.753906 12.710938 11.664062 " fill-opacity="1" fill-rule="nonzero"/><path fill="#ffffff" d="M 16.792969 19.625 C 16.714844 19.625 16.636719 19.613281 16.558594 19.585938 C 16.328125 19.507812 15.699219 19.210938 15.195312 18.972656 L 14.878906 18.824219 C 14.179688 18.5 12.699219 18.144531 11.996094 18.136719 C 10.28125 18.113281 9.488281 18.183594 7.464844 18.453125 C 6.988281 18.519531 6.59375 18.394531 6.382812 18.121094 C 6.265625 17.964844 6.214844 17.769531 6.242188 17.5625 C 6.277344 17.308594 6.421875 17.0625 6.632812 16.90625 C 6.957031 16.664062 7.363281 16.613281 7.691406 16.574219 C 7.863281 16.550781 8.039062 16.527344 8.21875 16.503906 C 8.542969 16.457031 8.867188 16.414062 9.1875 16.386719 C 9.492188 16.359375 9.726562 16.335938 9.914062 16.316406 C 10.609375 16.246094 10.742188 16.234375 11.808594 16.285156 C 11.828125 16.285156 11.84375 16.285156 11.859375 16.285156 C 13.621094 16.433594 15.945312 17.035156 17.175781 18.054688 C 17.523438 18.34375 17.664062 18.660156 17.578125 18.949219 C 17.496094 19.214844 17.320312 19.441406 17.105469 19.550781 C 17.007812 19.601562 16.902344 19.625 16.792969 19.625 Z M 11.449219 17.628906 C 11.621094 17.628906 11.808594 17.628906 12.003906 17.632812 C 12.839844 17.644531 14.402344 18.046875 15.09375 18.371094 L 15.414062 18.519531 C 15.878906 18.738281 16.519531 19.042969 16.722656 19.109375 C 16.777344 19.128906 16.824219 19.125 16.875 19.101562 C 16.964844 19.054688 17.050781 18.9375 17.089844 18.804688 C 17.113281 18.730469 17.015625 18.578125 16.847656 18.441406 C 15.71875 17.503906 13.476562 16.929688 11.851562 16.789062 C 11.84375 16.789062 11.832031 16.789062 11.820312 16.789062 C 10.757812 16.738281 10.652344 16.746094 9.964844 16.816406 C 9.777344 16.835938 9.542969 16.859375 9.230469 16.886719 C 8.921875 16.914062 8.601562 16.957031 8.289062 17 C 8.109375 17.027344 7.929688 17.050781 7.753906 17.070312 C 7.472656 17.105469 7.15625 17.144531 6.9375 17.308594 C 6.839844 17.382812 6.761719 17.507812 6.746094 17.628906 C 6.734375 17.703125 6.75 17.769531 6.785156 17.816406 C 6.929688 18 7.289062 17.96875 7.398438 17.957031 C 9.21875 17.710938 10.058594 17.628906 11.449219 17.628906 Z M 11.449219 17.628906 " fill-opacity="1" fill-rule="nonzero"/><path fill="#ffffff" d="M 17.792969 16.78125 C 17.46875 16.78125 17.171875 16.644531 16.90625 16.523438 C 16.8125 16.480469 16.722656 16.4375 16.628906 16.402344 C 16.46875 16.339844 16.238281 16.253906 16.019531 16.171875 L 15.617188 16.023438 C 14.800781 15.714844 14.097656 15.445312 12.539062 15.121094 C 12.515625 15.113281 12.496094 15.109375 12.472656 15.097656 C 11.925781 14.953125 11.464844 14.96875 10.976562 14.984375 L 10.691406 14.996094 C 10.363281 15.003906 9.398438 15.082031 9.089844 15.144531 C 8.703125 15.222656 8.449219 15.273438 8.203125 15.324219 C 7.945312 15.378906 7.6875 15.433594 7.285156 15.511719 C 7.09375 15.550781 6.878906 15.59375 6.648438 15.5625 C 6.253906 15.515625 5.90625 15.25 5.753906 14.886719 C 5.683594 14.71875 5.671875 14.558594 5.714844 14.414062 C 5.765625 14.199219 5.839844 13.851562 6.320312 13.675781 C 7.742188 13.152344 8.582031 13.101562 9.648438 13.03125 C 9.824219 13.023438 10.007812 13.011719 10.203125 12.996094 C 11.695312 12.890625 12.667969 13.097656 13.695312 13.320312 C 13.925781 13.367188 14.15625 13.417969 14.402344 13.464844 C 15.175781 13.621094 15.960938 13.914062 16.722656 14.199219 L 17.109375 14.347656 C 17.792969 14.601562 18.460938 14.847656 18.621094 15.554688 C 18.679688 15.808594 18.613281 16.242188 18.421875 16.453125 C 18.300781 16.589844 18.179688 16.730469 17.972656 16.765625 C 17.910156 16.777344 17.851562 16.78125 17.792969 16.78125 Z M 12.714844 14.644531 C 14.261719 14.972656 14.976562 15.242188 15.796875 15.554688 L 16.199219 15.703125 C 16.417969 15.785156 16.652344 15.871094 16.816406 15.933594 C 16.917969 15.972656 17.015625 16.019531 17.117188 16.066406 C 17.390625 16.191406 17.648438 16.308594 17.890625 16.269531 C 17.914062 16.265625 17.972656 16.203125 18.007812 16.160156 L 18.042969 16.117188 C 18.101562 16.054688 18.15625 15.796875 18.125 15.664062 C 18.03125 15.246094 17.625 15.074219 16.96875 14.832031 L 16.542969 14.671875 C 15.800781 14.394531 15.035156 14.105469 14.300781 13.960938 C 14.054688 13.910156 13.820312 13.863281 13.589844 13.8125 C 12.554688 13.589844 11.660156 13.398438 10.238281 13.5 C 10.042969 13.511719 9.859375 13.523438 9.679688 13.535156 C 8.617188 13.601562 7.847656 13.652344 6.496094 14.148438 C 6.277344 14.230469 6.253906 14.34375 6.222656 14.476562 C 6.214844 14.511719 6.207031 14.542969 6.199219 14.570312 C 6.199219 14.578125 6.191406 14.617188 6.222656 14.695312 C 6.304688 14.890625 6.5 15.039062 6.710938 15.066406 C 6.855469 15.082031 7.023438 15.050781 7.183594 15.019531 C 7.585938 14.941406 7.839844 14.886719 8.097656 14.835938 C 8.347656 14.78125 8.597656 14.730469 8.992188 14.652344 C 9.328125 14.585938 10.332031 14.5 10.679688 14.492188 L 10.960938 14.484375 C 11.484375 14.46875 12.027344 14.449219 12.683594 14.632812 C 12.695312 14.636719 12.703125 14.640625 12.714844 14.644531 Z M 12.714844 14.644531 " fill-opacity="1" fill-rule="nonzero"/><path fill="#ffffff" d="M 18.960938 13.710938 C 18.523438 13.710938 18.097656 13.546875 17.714844 13.382812 C 17.53125 13.300781 17.347656 13.222656 17.164062 13.140625 C 16.234375 12.730469 15.273438 12.304688 14.277344 12.171875 C 14.066406 12.140625 13.875 12.109375 13.667969 12.070312 C 13.398438 12.019531 13.101562 11.96875 12.695312 11.917969 C 12.683594 11.917969 12.671875 11.917969 12.660156 11.914062 C 10.976562 11.660156 9.078125 11.785156 7.023438 12.285156 L 6.972656 12.300781 C 6.746094 12.355469 6.511719 12.414062 6.257812 12.40625 C 5.914062 12.398438 5.613281 12.257812 5.4375 12.027344 C 5.296875 11.84375 5.179688 11.667969 5.148438 11.40625 C 5.125 11.214844 5.179688 10.933594 5.273438 10.746094 C 5.355469 10.582031 5.496094 10.476562 5.621094 10.394531 C 6.199219 10.019531 6.867188 9.800781 7.554688 9.765625 C 7.738281 9.757812 7.9375 9.714844 8.148438 9.667969 C 8.335938 9.625 8.535156 9.582031 8.726562 9.566406 L 8.953125 9.542969 C 9.5625 9.484375 10.183594 9.429688 10.464844 9.4375 C 11.164062 9.46875 11.589844 9.464844 11.929688 9.460938 C 12.519531 9.453125 12.90625 9.449219 14.085938 9.597656 C 14.292969 9.621094 14.605469 9.695312 14.878906 9.757812 C 15.03125 9.792969 15.175781 9.824219 15.285156 9.847656 C 15.832031 9.953125 16.027344 9.988281 16.558594 10.175781 C 16.78125 10.253906 16.960938 10.308594 17.113281 10.351562 C 17.304688 10.40625 17.46875 10.453125 17.632812 10.53125 C 17.746094 10.582031 17.878906 10.636719 18.015625 10.691406 C 18.253906 10.789062 18.5 10.890625 18.695312 11 C 18.863281 11.089844 18.996094 11.15625 19.109375 11.214844 C 19.464844 11.390625 19.628906 11.476562 19.976562 11.84375 C 20.457031 12.351562 20.175781 13.117188 19.894531 13.382812 C 19.75 13.519531 19.613281 13.582031 19.429688 13.640625 C 19.273438 13.6875 19.117188 13.710938 18.960938 13.710938 Z M 12.71875 11.414062 C 12.726562 11.414062 12.734375 11.417969 12.742188 11.417969 C 13.164062 11.46875 13.476562 11.523438 13.757812 11.574219 C 13.957031 11.613281 14.140625 11.644531 14.34375 11.671875 C 15.414062 11.816406 16.410156 12.253906 17.371094 12.679688 C 17.550781 12.761719 17.734375 12.839844 17.914062 12.921875 C 18.347656 13.109375 18.847656 13.292969 19.273438 13.160156 C 19.402344 13.121094 19.464844 13.09375 19.539062 13.019531 C 19.65625 12.910156 19.855469 12.457031 19.601562 12.1875 C 19.316406 11.882812 19.214844 11.832031 18.875 11.664062 C 18.761719 11.605469 18.625 11.535156 18.449219 11.441406 C 18.277344 11.347656 18.042969 11.25 17.816406 11.15625 C 17.675781 11.097656 17.535156 11.042969 17.417969 10.988281 C 17.289062 10.925781 17.148438 10.886719 16.96875 10.835938 C 16.808594 10.789062 16.621094 10.734375 16.382812 10.652344 C 15.890625 10.476562 15.71875 10.441406 15.203125 10.34375 C 15.070312 10.316406 14.921875 10.285156 14.761719 10.246094 C 14.5 10.1875 14.203125 10.117188 14.019531 10.097656 C 12.875 9.957031 12.5 9.957031 11.933594 9.964844 C 11.585938 9.964844 11.15625 9.972656 10.441406 9.941406 C 10.171875 9.929688 9.410156 10.003906 9 10.042969 L 8.769531 10.066406 C 8.609375 10.082031 8.4375 10.117188 8.253906 10.160156 C 8.035156 10.207031 7.804688 10.257812 7.582031 10.269531 C 6.980469 10.300781 6.402344 10.488281 5.898438 10.816406 C 5.828125 10.863281 5.753906 10.917969 5.726562 10.972656 C 5.675781 11.070312 5.640625 11.253906 5.652344 11.351562 C 5.667969 11.476562 5.722656 11.570312 5.839844 11.726562 C 5.921875 11.832031 6.082031 11.902344 6.269531 11.90625 C 6.457031 11.917969 6.644531 11.863281 6.847656 11.8125 L 6.902344 11.800781 C 9.015625 11.28125 10.972656 11.152344 12.71875 11.414062 Z M 12.71875 11.414062 " fill-opacity="1" fill-rule="nonzero"/><g fill="#ffffff" fill-opacity="1"><g transform="translate(25.004076, 18.18428)"><g><path d="M 5.90625 -2.546875 C 5.90625 -2.921875 5.769531 -3.207031 5.5 -3.40625 C 5.226562 -3.613281 4.742188 -3.828125 4.046875 -4.046875 C 3.359375 -4.273438 2.8125 -4.5 2.40625 -4.71875 C 1.3125 -5.3125 0.765625 -6.113281 0.765625 -7.125 C 0.765625 -7.65625 0.910156 -8.125 1.203125 -8.53125 C 1.492188 -8.945312 1.914062 -9.269531 2.46875 -9.5 C 3.03125 -9.726562 3.65625 -9.84375 4.34375 -9.84375 C 5.03125 -9.84375 5.644531 -9.71875 6.1875 -9.46875 C 6.738281 -9.21875 7.160156 -8.863281 7.453125 -8.40625 C 7.753906 -7.945312 7.90625 -7.425781 7.90625 -6.84375 L 5.90625 -6.84375 C 5.90625 -7.289062 5.765625 -7.632812 5.484375 -7.875 C 5.203125 -8.125 4.8125 -8.25 4.3125 -8.25 C 3.820312 -8.25 3.441406 -8.144531 3.171875 -7.9375 C 2.898438 -7.726562 2.765625 -7.457031 2.765625 -7.125 C 2.765625 -6.800781 2.921875 -6.535156 3.234375 -6.328125 C 3.554688 -6.117188 4.023438 -5.921875 4.640625 -5.734375 C 5.773438 -5.390625 6.601562 -4.960938 7.125 -4.453125 C 7.644531 -3.941406 7.90625 -3.3125 7.90625 -2.5625 C 7.90625 -1.71875 7.585938 -1.054688 6.953125 -0.578125 C 6.316406 -0.0976562 5.460938 0.140625 4.390625 0.140625 C 3.640625 0.140625 2.957031 0.00390625 2.34375 -0.265625 C 1.726562 -0.546875 1.257812 -0.921875 0.9375 -1.390625 C 0.613281 -1.867188 0.453125 -2.421875 0.453125 -3.046875 L 2.46875 -3.046875 C 2.46875 -1.984375 3.109375 -1.453125 4.390625 -1.453125 C 4.859375 -1.453125 5.226562 -1.546875 5.5 -1.734375 C 5.769531 -1.929688 5.90625 -2.203125 5.90625 -2.546875 Z M 5.90625 -2.546875 "/></g></g></g><g fill="#ffffff" fill-opacity="1"><g transform="translate(33.390997, 18.18428)"><g><path d="M 7.234375 -3.546875 C 7.234375 -2.429688 6.976562 -1.535156 6.46875 -0.859375 C 5.96875 -0.191406 5.289062 0.140625 4.4375 0.140625 C 3.707031 0.140625 3.117188 -0.113281 2.671875 -0.625 L 2.671875 2.78125 L 0.734375 2.78125 L 0.734375 -7.21875 L 2.53125 -7.21875 L 2.59375 -6.515625 C 3.0625 -7.066406 3.671875 -7.34375 4.421875 -7.34375 C 5.304688 -7.34375 5.992188 -7.015625 6.484375 -6.359375 C 6.984375 -5.703125 7.234375 -4.796875 7.234375 -3.640625 Z M 5.3125 -3.6875 C 5.3125 -4.351562 5.191406 -4.867188 4.953125 -5.234375 C 4.710938 -5.597656 4.367188 -5.78125 3.921875 -5.78125 C 3.304688 -5.78125 2.890625 -5.550781 2.671875 -5.09375 L 2.671875 -2.140625 C 2.898438 -1.660156 3.316406 -1.421875 3.921875 -1.421875 C 4.847656 -1.421875 5.3125 -2.175781 5.3125 -3.6875 Z M 5.3125 -3.6875 "/></g></g></g><g fill="#ffffff" fill-opacity="1"><g transform="translate(41.071791, 18.18428)"><g><path d="M 0.4375 -3.671875 C 0.4375 -4.390625 0.570312 -5.023438 0.84375 -5.578125 C 1.125 -6.140625 1.523438 -6.570312 2.046875 -6.875 C 2.566406 -7.1875 3.164062 -7.34375 3.84375 -7.34375 C 4.820312 -7.34375 5.617188 -7.046875 6.234375 -6.453125 C 6.847656 -5.859375 7.191406 -5.050781 7.265625 -4.03125 L 7.28125 -3.53125 C 7.28125 -2.425781 6.96875 -1.535156 6.34375 -0.859375 C 5.726562 -0.191406 4.898438 0.140625 3.859375 0.140625 C 2.816406 0.140625 1.984375 -0.191406 1.359375 -0.859375 C 0.742188 -1.523438 0.4375 -2.4375 0.4375 -3.59375 Z M 2.359375 -3.53125 C 2.359375 -2.84375 2.488281 -2.316406 2.75 -1.953125 C 3.007812 -1.597656 3.378906 -1.421875 3.859375 -1.421875 C 4.328125 -1.421875 4.691406 -1.597656 4.953125 -1.953125 C 5.210938 -2.316406 5.34375 -2.890625 5.34375 -3.671875 C 5.34375 -4.347656 5.210938 -4.867188 4.953125 -5.234375 C 4.691406 -5.597656 4.320312 -5.78125 3.84375 -5.78125 C 3.375 -5.78125 3.007812 -5.597656 2.75 -5.234375 C 2.488281 -4.867188 2.359375 -4.300781 2.359375 -3.53125 Z M 2.359375 -3.53125 "/></g></g></g><g fill="#ffffff" fill-opacity="1"><g transform="translate(48.785888, 18.18428)"><g><path d="M 3.046875 -8.984375 L 3.046875 -7.21875 L 4.28125 -7.21875 L 4.28125 -5.796875 L 3.046875 -5.796875 L 3.046875 -2.203125 C 3.046875 -1.929688 3.097656 -1.738281 3.203125 -1.625 C 3.304688 -1.507812 3.5 -1.453125 3.78125 -1.453125 C 4 -1.453125 4.191406 -1.46875 4.359375 -1.5 L 4.359375 -0.046875 C 3.972656 0.078125 3.582031 0.140625 3.1875 0.140625 C 1.832031 0.140625 1.144531 -0.539062 1.125 -1.90625 L 1.125 -5.796875 L 0.0625 -5.796875 L 0.0625 -7.21875 L 1.125 -7.21875 L 1.125 -8.984375 Z M 3.046875 -8.984375 "/></g></g></g><g fill="#ffffff" fill-opacity="1"><g transform="translate(53.395694, 18.18428)"><g><path d="M 2.78125 0 L 0.84375 0 L 0.84375 -7.21875 L 2.78125 -7.21875 Z M 0.734375 -9.078125 C 0.734375 -9.367188 0.828125 -9.609375 1.015625 -9.796875 C 1.210938 -9.984375 1.476562 -10.078125 1.8125 -10.078125 C 2.132812 -10.078125 2.394531 -9.984375 2.59375 -9.796875 C 2.789062 -9.609375 2.890625 -9.367188 2.890625 -9.078125 C 2.890625 -8.785156 2.789062 -8.546875 2.59375 -8.359375 C 2.394531 -8.171875 2.128906 -8.078125 1.796875 -8.078125 C 1.472656 -8.078125 1.210938 -8.171875 1.015625 -8.359375 C 0.828125 -8.546875 0.734375 -8.785156 0.734375 -9.078125 Z M 0.734375 -9.078125 "/></g></g></g><g fill="#ffffff" fill-opacity="1"><g transform="translate(57.012931, 18.18428)"><g><path d="M 1.265625 0 L 1.265625 -5.796875 L 0.1875 -5.796875 L 0.1875 -7.21875 L 1.265625 -7.21875 L 1.265625 -7.828125 C 1.265625 -8.640625 1.492188 -9.265625 1.953125 -9.703125 C 2.421875 -10.148438 3.078125 -10.375 3.921875 -10.375 C 4.179688 -10.375 4.503906 -10.332031 4.890625 -10.25 L 4.875 -8.75 C 4.71875 -8.789062 4.519531 -8.8125 4.28125 -8.8125 C 3.5625 -8.8125 3.203125 -8.472656 3.203125 -7.796875 L 3.203125 -7.21875 L 4.640625 -7.21875 L 4.640625 -5.796875 L 3.203125 -5.796875 L 3.203125 0 Z M 1.265625 0 "/></g></g></g><g fill="#ffffff" fill-opacity="1"><g transform="translate(61.902523, 18.18428)"><g><path d="M 3.4375 -2.734375 L 4.765625 -7.21875 L 6.828125 -7.21875 L 3.9375 1.125 L 3.78125 1.5 C 3.34375 2.4375 2.628906 2.90625 1.640625 2.90625 C 1.359375 2.90625 1.070312 2.863281 0.78125 2.78125 L 0.78125 1.328125 L 1.078125 1.328125 C 1.441406 1.328125 1.710938 1.269531 1.890625 1.15625 C 2.078125 1.050781 2.222656 0.867188 2.328125 0.609375 L 2.546875 0.015625 L 0.015625 -7.21875 L 2.09375 -7.21875 Z M 3.4375 -2.734375 "/></g></g></g><g clip-path="url(#7fe3caf0b0)"><path fill="#ffffff" d="M 70.886719 11.792969 C 70.183594 11.792969 69.613281 12.363281 69.613281 13.0625 C 69.613281 13.765625 70.183594 14.335938 70.886719 14.335938 C 71.589844 14.335938 72.160156 13.765625 72.160156 13.0625 C 72.160156 12.363281 71.589844 11.792969 70.886719 11.792969 Z M 70.886719 14.515625 C 70.085938 14.515625 69.433594 13.863281 69.433594 13.0625 C 69.433594 12.265625 70.085938 11.613281 70.886719 11.613281 C 71.6875 11.613281 72.339844 12.265625 72.339844 13.0625 C 72.339844 13.863281 71.6875 14.515625 70.886719 14.515625 " fill-opacity="1" fill-rule="nonzero"/></g><path fill="#ffffff" d="M 70.632812 13.027344 L 70.90625 13.027344 C 70.996094 13.027344 71.066406 13.003906 71.117188 12.957031 C 71.167969 12.914062 71.191406 12.851562 71.191406 12.773438 C 71.191406 12.691406 71.167969 12.628906 71.121094 12.582031 C 71.074219 12.539062 71.003906 12.515625 70.914062 12.515625 L 70.632812 12.515625 Z M 70.929688 13.242188 L 70.632812 13.242188 L 70.632812 13.828125 L 70.367188 13.828125 L 70.367188 12.300781 L 70.90625 12.300781 C 71.082031 12.300781 71.21875 12.339844 71.3125 12.417969 C 71.410156 12.496094 71.457031 12.613281 71.457031 12.761719 C 71.457031 12.863281 71.433594 12.949219 71.382812 13.019531 C 71.332031 13.089844 71.265625 13.140625 71.175781 13.179688 L 71.519531 13.816406 L 71.519531 13.828125 L 71.234375 13.828125 L 70.929688 13.242188 " fill-opacity="1" fill-rule="nonzero"/></svg>